<?xml version="1.0" standalone="no"?><!DOCTYPE svg PUBLIC "-//W3C//DTD SVG 1.1//EN" "http://www.w3.org/Graphics/SVG/1.1/DTD/svg11.dtd"><svg t="1639196183191" class="icon" viewBox="0 0 1024 1024" version="1.1" xmlns="http://www.w3.org/2000/svg" p-id="1905" xmlns:xlink="http://www.w3.org/1999/xlink" width="200" height="200"><defs><style type="text/css"></style></defs><path d="M565.76 705.706667l-139.946667 139.946666c-68.266667 68.266667-179.2 68.266667-247.04 0-68.266667-68.266667-68.266667-179.2 0-247.04l139.946667-139.946666a42.496 42.496 0 1 0-60.16-60.16L118.186667 537.6c-101.546667 101.546667-101.546667 266.666667 0 367.786667A258.986667 258.986667 0 0 0 302.08 981.333333c66.56 0 133.12-25.173333 183.893333-75.946666l139.946667-139.946667a42.496 42.496 0 0 0 0-60.16 42.112 42.112 0 0 0-60.16 0.426667z m340.053333-587.52c-101.546667-101.546667-266.666667-101.546667-367.786666 0L398.08 258.133333a42.496 42.496 0 1 0 60.16 60.16l139.946667-139.946666c68.266667-68.266667 179.2-68.266667 247.04 0 68.266667 68.266667 68.266667 179.2 0 247.04l-139.946667 139.946666a42.496 42.496 0 0 0 30.293333 72.533334c11.093333 0 21.76-4.266667 30.293334-12.373334l139.946666-139.946666c101.12-100.693333 101.12-265.813333 0-367.36zM308.906667 715.093333c8.533333 8.533333 19.2 12.373333 30.293333 12.373334s21.76-4.266667 30.293333-12.373334l346.026667-346.026666a42.496 42.496 0 1 0-60.16-60.16l-346.026667 346.026666c-17.066667 16.64-17.066667 43.52-0.426666 60.16z" p-id="1906"></path></svg>